#!OML:ASF F:\VICON\USERDATA\INSTALL\rory3\rory3.ASF
:FULLY-SPECIFIED
:DEGREES
17
root 0.5708495176920024 18.148882109018945 -18.31728844163335 -3.5263529385834014 -0.4358938726157242 -4.630973454824252
lfemur -9.413360021386918 0.506654732728796 -14.889607656262957
ltibia 65.48798062111527
lfoot 10.12168134967898 -14.173381682292831
ltoes -6.862005026503801
rfemur -14.97749926897217 6.482003518938448 29.49909435676682
rtibia 29.18830524001816
rfoot -8.577560343690637 -4.967023112844336
rtoes 9.102620783601445
lowerback 11.856484210309743 -1.15703028191696 2.6081553572052147
upperback -0.42363369082739444 -0.9520653712895386 3.0802436567054334
thorax -7.107057513222475 -0.5001245622990496 1.9560865731992032
lowerneck -15.586103674989948 -2.7404930894429245 -2.304532521648351
upperneck 23.38279639525989 -3.081096074654274 -0.679166117238594
head 10.045497759789964 -1.713463234986306 -0.25785772172329513
lclavicle -1.3874280347414164e-15 -1.8436986327867626e-15
lhumerus -29.68650114087263 3.653289313544721 81.8654967184585
lradius 26.505596297841283
lwrist 2.8132909722598445
lhand -27.98039812364167 22.1137044870716
lfingers 7.125019999999999
lthumb -1.3669881238937758 52.08910443195744
rclavicle -1.3874280347414164e-15 -1.8436986327867626e-15
rhumerus -35.24669221307881 -27.314795110921807 -71.08960696664508
rradius 19.175610719270676
rwrist 11.774090927089114
rhand -17.26950730064349 22.434599579718213
rfingers 7.125019999999999
rthumb 8.975282698542257 -7.354470604201003
18
root 0.5306084967357326 18.179180245834875 -17.657089097514273 -3.6433920521827927 -1.3544205388954755 -4.77073303308919
lfemur -14.193197020998614 2.0080419082805046 -14.639208273351056
ltibia 67.41138021209221
lfoot 1.9346292793196254 -8.550580164257362
ltoes -1.2122635135447686
rfemur -12.036201271402087 6.982732034125982 30.240593275793277
rtibia 28.91930569204879
rfoot -10.534597936826195 -3.790215990253195
rtoes 5.040667380031087
lowerback 11.661186212623226 -0.6206588719096884 2.7170651104837287
upperback -0.20897396538770815 -0.2569944176825302 2.8586061091735
thorax -6.777141857301784 -0.16745075439050006 1.5280483479220068
lowerneck -15.5155045918678 -2.891579285871552 -2.3898711396252654
upperneck 23.510895599357262 -3.3666322458371196 -0.3118562120288534
head 10.08889700092168 -1.8093995077012863 -0.15270787092407992
lclavicle -1.3874280642612796e-15 -1.8436985033358366e-15
lhumerus -30.86279905136656 4.708497301346603 81.99199602147672
lradius 26.04939712089651
lwrist 2.5402516900644767
lhand -27.897798446100563 23.175301523299137
lfingers 7.125019999999999
lthumb -1.287198463551743 53.15120148107725
rclavicle -1.3874280642612796e-15 -1.8436985033358366e-15
rhumerus -32.745395701813045 -25.32859739695348 -73.37790319459859
rradius 19.909309119784343
rwrist 9.999423953070053
rhand -16.078217066947953 21.773603363433274
rfingers 7.125019999999999
rthumb 10.12468296317085 -7.962777147085165
19
root 0.5035911534337679 18.153481835668757 -17.012889588600288 -3.3081246604780885 -2.2133064540217857 -4.931382637558261
lfemur -18.873293846944712 2.962078239498667 -14.61040820788529
ltibia 67.02797991161971
lfoot -2.705465413100498 -5.349195139916466
ltoes -3.8797193991136827
rfemur -10.374702719510406 7.269591080513991 30.909092101410625
rtibia 29.22830488504829
rfoot -12.253195809281484 -5.787921046642299
rtoes 5.384596841672284
lowerback 11.536487479897392 0.05442060067569404 3.18690390416847
upperback -0.3032061204096588 0.667937517649585 2.3494518055875915
thorax -6.799681596778648 0.2585261281210907 0.5654154192458296
lowerneck -15.818200674020183 -3.1899717791102233 -1.8659995745841298
upperneck 23.876493152530614 -3.936134625683124 -0.2565658185513239
head 10.272593763142206 -2.015931496589405 -0.3058882877516754
lclavicle -1.3874280504791363e-15 -1.8436986314023275e-15
lhumerus -32.02399704460567 4.616187467994991 81.9255964083785
lradius 25.591697964952242
lwrist 2.4673618771269825
lhand -27.837498701438292 19.339612055229985
lfingers 7.125019999999999
lthumb -1.2289786919189947 49.31581205570593
rclavicle -1.3874280504791363e-15 -1.8436986314023275e-15
rhumerus -30.750298582575972 -22.886400413357727 -75.90969928114055
rradius 21.450606087504422
rwrist 7.415797932889084
rhand -17.17050808309682 24.480187864624014
rfingers 7.125019999999999
rthumb 9.07081186001575 -5.304792254179772
20
root 0.4873605478297849 18.114784226410052 -16.38068794167407 -3.0809664508653225 -2.4762052150785445 -5.475451120468536
lfemur -22.944791016160384 2.625109673579596 -14.199208805890947
ltibia 64.09458217976356
lfoot -5.627152337763446 -2.9776787829437086
ltoes -6.571255212636158
rfemur -8.301783997189311 7.285921017216051 31.90229081279007
rtibia 29.60440472054637
rfoot -14.418293012334301 -6.5939490235236216
rtoes 4.962637552264664
lowerback 11.67608602383707 0.3162147292575604 3.838182067134744
upperback -0.42164373573238667 1.1108675685911091 2.245732938605011
thorax -6.986039142361991 0.4464863208716119 0.013075968179630637
lowerneck -15.541004257054732 -3.21430115119492 -1.8353800677793302
upperneck 23.62449482166744 -3.9813140252862875 -0.24968990759180032
head 10.128296313678716 -2.034160786153649 -0.3062702802995374
lclavicle -1.3874280789979016e-15 -1.8436986033661214e-15
lhumerus -33.63669404883853 5.220016322828723 81.95119625040248
lradius 25.70419777006425
lwrist 3.375569541390116
lhand -26.149205469842094 22.354703771990327
lfingers 7.125019999999999
lthumb 0.4016016115146479 52.33410372845529
rclavicle -1.3874280789979016e-15 -1.8436986033661214e-15
rhumerus -28.93780120346234 -19.17020507451523 -78.07239590247667
rradius 23.760401574560422
rwrist 4.1291830387782475
rhand -15.378822805528067 16.549933280908487
rfingers 7.125019999999999
rthumb 10.799377225219816 -13.152367431386379
21
root 0.4026577056821443 18.033750401542484 -8.800265696351763 -2.8769379169455194 -2.5147255743980903 -5.5837492405248526
lfemur -24.28996708472748 3.652907398506078 -14.328982058132063
ltibia 59.404087963342924
lfoot -8.136354320102583 0.5498364483269609
ltoes -6.180241311737086
rfemur -6.143172664573095 5.691955591457776 32.02710757194829
rtibia 30.393202745754383
rfoot -16.773689128073052 -7.291681475534235
rtoes 3.861615633013814
lowerback 11.006563843933074 0.5558634879905078 4.165220062319076
upperback -0.12111031343304876 2.2403920442000356 2.0430757928762935
thorax -6.136936551080814 0.5904394170772017 -0.8276646040827056
lowerneck -16.071367615242234 -2.883424192003347 -1.61106946498423
upperneck 23.395459008324742 -3.7000953001991217 -0.8862055476645505
head 9.900127460935247 -1.8776528613113417 -0.2785905168093322
lclavicle -1.3860218578078011e-15 -1.8423919408032387e-15
lhumerus -34.155774831031955 6.341906511652207 81.62445732786351
lradius 25.069101811268855
lwrist 2.4139006090669564
lhand -27.365399936759406 21.705163548978724
lfingers 7.125019999999999
lthumb -1.0124523140560568 51.33764400380442
rclavicle -1.3880235684106563e-15 -1.8442519686094863e-15
rhumerus -25.935452405839435 -17.914203358291125 -79.64756947993081
rradius 24.76922055534421
rwrist 2.3212478259527543
rhand -17.880040579927115 22.0736057965634
rfingers 7.125019999999999
rthumb 8.258938292268741 -8.255331204601278
22
root 0.4066738631227494 17.992507124095635 -9.529675155786181 -2.476839014526145 -2.9275427965941696 -6.308874971088914
lfemur -26.57916464296013 3.3917575363871624 -14.390257786708876
ltibia 51.73753426566411
lfoot -10.395159041199573 3.818199513068949
ltoes -6.458836803201411
rfemur -4.693623262171208 5.5967849927162225 32.82096570613767
rtibia 30.971231600648277
rfoot -18.45620912557245 -7.783555063827664
rtoes 2.969664578942281
lowerback 10.938435635387192 0.8699507681872045 4.804442967990914
upperback -0.25580059242929254 2.5857075871966484 2.022171370176447
thorax -6.202892500549148 0.718240044705706 -1.1620970387662986
lowerneck -16.229404449078377 -2.769849638022959 -1.4404841353360838
upperneck 23.354650722419528 -3.487240225672341 -0.9705434144365579
head 9.944139429192838 -1.8105899589980665 -0.39501160986651807
lclavicle -1.3860225862271513e-15 -1.8423926176644415e-15
lhumerus -34.812017222130066 8.310290240572062 80.8932705368599
lradius 24.183670182047308
lwrist 1.2555544653231978
lhand -27.74392654922344 21.860366229231964
lfingers 7.125019999999999
lthumb -1.3010474504798957 51.6837673463167
rclavicle -1.3880238580205262e-15 -1.844252237720521e-15
rhumerus -24.438801614093553 -15.812259638309751 -80.05870189960677
rradius 25.668221382174302
rwrist 0.48944848977137845
rhand -18.199478638771332 22.816208144760576
rfingers 7.125019999999999
rthumb 8.137609160380222 -6.92541489325602
23
root 0.4195311151645587 17.95993723661644 -10.043582909995655 -1.9485606966775924 -3.208045049321411 -6.818304469831213
lfemur -28.017907679181988 1.9381201295938988 -13.855888851396188
ltibia 41.53949203391296
lfoot -11.743953928299922 5.265885793449562
ltoes -6.74018397159237
rfemur -2.8161564311061618 5.76645110898592 33.2568445096825
rtibia 31.145545094402344
rfoot -18.985264427315716 -7.863719775925354
rtoes 2.1276188032490415
lowerback 10.715922965110739 1.0839041655682864 5.22474532214732
upperback -0.32798062538509654 2.839108616688415 2.0632433906263525
thorax -6.107625089651208 0.8466968551608298 -1.3285089949268383
lowerneck -16.10552909108914 -2.738938958036389 -1.379814083606746
upperneck 23.243064814181487 -3.5342977732037646 -1.0063757523215842
head 9.86943498278981 -1.7912826782068432 -0.39268427071916756
lclavicle -1.3860223693883933e-15 -1.842392416173717e-15
lhumerus -35.4836738173699 10.564956619618446 79.71183194615203
lradius 22.853606761623485
lwrist -0.4687833633196181
lhand -28.161992217341428 21.15182492906018
lfingers 7.125019999999999
lthumb -1.85751707662138 50.67997877181024
rclavicle -1.388023629289566e-15 -1.8442520251793345e-15
rhumerus -22.88844162075254 -14.051197528789466 -80.2084831982354
rradius 26.47612119467466
rwrist -0.5754216009541171
rhand -18.13446050714211 22.98254618573104
rfingers 7.125019999999999
rthumb 8.122698022074648 -6.820360211254449
